<?xml version="1.0" encoding="UTF-8"?>
<svg width="34px" height="34px" viewBox="0 0 34 34" version="1.1" xmlns="http://www.w3.org/2000/svg" xmlns:xlink="http://www.w3.org/1999/xlink">
    <!-- Generator: Sketch 63.1 (92452) - https://sketch.com -->
    <title>btn-exchange</title>
    <desc>Created with Sketch.</desc>
    <g id="btn-exchange" stroke="none" stroke-width="1" fill="none" fill-rule="evenodd">
        <g>
            <rect id="Rectangle" fill="#FFFFFF" x="0" y="0" width="34" height="34"></rect>
            <g id="Group-12" transform="translate(5.000000, 5.000000)" fill-rule="nonzero">
                <path d="M1.04805054e-13,13.6589466 L3.78167635,16.1355184 L2.36407714,17.372562 C4.30003159,20.6855981 7.96787798,22.8804142 12.1051868,22.8804142 C17.1131967,22.8804142 21.4667525,19.6597187 22.8475116,15.0727813 L22.8884405,14.9333669 L24,15.2329597 C22.5283871,20.375489 17.6853354,24 12.1051868,24 C6.18727226,24 1.14074779,19.9298246 1.04805054e-13,14.3759618 L1.04805054e-13,13.6589466 Z M11.8948132,0 C17.8127277,0 22.8592522,4.07017541 24,9.62403821 L24,10.3410534 L20.2183236,7.86448163 L21.6359229,6.62743797 C19.6999684,3.31440193 16.032122,1.11958579 11.8948132,1.11958579 C6.88680326,1.11958579 2.53324748,4.34028128 1.15248836,8.92721868 L1.11155951,9.06663306 L-1.04805054e-13,8.76704032 C1.47161288,3.62451101 6.31466465,0 11.8948132,0 Z" id="Shape" fill="#FFA3A5"></path>
                <path d="M10.1684241,6.49818961 C10.3232792,6.49818961 10.4580233,6.55674233 10.5772271,6.66497614 L10.6125265,6.69892784 L14.4877766,10.7963494 C14.6710002,10.9908363 14.7895566,11.0493458 15.0666109,11.0555563 L15.1204705,11.0561283 L17.456571,11.0561283 C18.5698689,11.0561283 19.4884917,11.5461658 19.4945753,12.201517 C19.4886159,12.8377102 18.6069836,13.3265993 17.5244827,13.346289 L17.456571,13.3469058 L15.1204705,13.3469058 C14.8227322,13.3469058 14.6974396,13.3939749 14.5214277,13.5717914 L14.4877766,13.6066847 L10.6125265,17.7041063 C10.4963852,17.8221876 10.3651605,17.891475 10.2142819,17.9030968 L10.1684241,17.9048445 L9.47489426,17.9048445 C9.33175085,17.9048445 9.24788565,17.7845568 9.29937765,17.6473489 L9.31063719,17.6214493 L11.31214,13.3469058 L8.37984715,13.0280862 L7.3334688,14.8701547 C7.26046565,14.9955026 7.15117693,15.0554516 6.98646297,15.0639328 L6.94411871,15.0649889 L6.69469131,15.0649889 C6.55274076,15.0649889 6.45318611,14.9878424 6.44054305,14.8527504 L6.43918032,14.8229222 L6.43918032,9.57420783 C6.43918032,9.43644629 6.5292716,9.34497264 6.66493848,9.33338842 L6.69469131,9.33214113 L6.94411871,9.33214113 C7.11820312,9.33214113 7.23526733,9.38747865 7.31445098,9.50279739 L7.3334688,9.53287937 L8.37984715,11.3749479 L11.31214,11.0561283 L9.31063719,6.78158476 C9.24192835,6.6371088 9.31333166,6.51355244 9.44876811,6.49951631 L9.47489426,6.49818961 L10.1684241,6.49818961 Z" id="Path" fill="#E60012"></path>
            </g>
        </g>
    </g>
</svg>